<svg width="152" class="change-my-color" height="36" viewBox="0 0 152 36" fill="none" xmlns="http://www.w3.org/2000/svg">
<ellipse cx="13.5" cy="13" rx="13.5" ry="13" fill="url(#paint0_linear_15_72)"/>
<path d="M21.232 16.008C24.352 16.008 26.688 16.72 28.24 18.144C29.792 19.552 30.568 21.608 30.568 24.312C30.568 26.056 30.184 27.584 29.416 28.896C28.664 30.192 27.568 31.2 26.128 31.92C24.704 32.64 23 33 21.016 33L19.528 32.976C18.6 32.944 17.928 32.928 17.512 32.928C15.864 32.928 14.632 32.952 13.816 33V32.52C14.344 32.488 14.728 32.424 14.968 32.328C15.224 32.232 15.392 32.048 15.472 31.776C15.568 31.504 15.616 31.064 15.616 30.456V18.552C15.616 17.944 15.568 17.504 15.472 17.232C15.392 16.96 15.224 16.776 14.968 16.68C14.728 16.584 14.344 16.52 13.816 16.488V16.008C14.488 16.056 15.456 16.08 16.72 16.08H17.464L18.424 16.056C19.736 16.024 20.672 16.008 21.232 16.008ZM21.208 16.44C20.712 16.44 20.336 16.496 20.08 16.608C19.84 16.72 19.672 16.92 19.576 17.208C19.48 17.496 19.432 17.928 19.432 18.504V30.504C19.432 31.08 19.48 31.512 19.576 31.8C19.672 32.088 19.84 32.288 20.08 32.4C20.336 32.512 20.72 32.568 21.232 32.568C23.168 32.568 24.544 31.896 25.36 30.552C26.176 29.192 26.584 27.144 26.584 24.408C26.584 21.672 26.16 19.664 25.312 18.384C24.48 17.088 23.112 16.44 21.208 16.44ZM45.5937 30.984C45.8017 31.512 46.0417 31.896 46.3137 32.136C46.5857 32.376 46.8497 32.504 47.1057 32.52V33C46.1457 32.952 44.9297 32.928 43.4577 32.928C41.8257 32.928 40.6097 32.952 39.8097 33V32.52C40.4177 32.488 40.8497 32.416 41.1057 32.304C41.3617 32.176 41.4897 31.96 41.4897 31.656C41.4897 31.368 41.3937 30.984 41.2017 30.504L39.7617 26.568H34.5297L33.9057 28.224C33.4577 29.376 33.2337 30.264 33.2337 30.888C33.2337 31.48 33.4097 31.896 33.7617 32.136C34.1297 32.36 34.6657 32.488 35.3697 32.52V33C34.2817 32.952 33.2897 32.928 32.3937 32.928C31.6577 32.928 31.0497 32.952 30.5697 33V32.52C31.3537 32.376 32.0417 31.536 32.6337 30L38.1057 15.96C38.2817 15.976 38.5617 15.984 38.9457 15.984C39.3297 15.984 39.6017 15.976 39.7617 15.96L45.5937 30.984ZM39.5937 26.088L37.2177 19.608L34.7217 26.088H39.5937ZM58.5856 16.056C59.3216 16.056 59.9296 16.032 60.4096 15.984V16.464C59.6736 16.768 58.9056 17.696 58.1056 19.248L55.2736 24.864V30.456C55.2736 31.064 55.3136 31.504 55.3936 31.776C55.4896 32.048 55.6576 32.232 55.8976 32.328C56.1376 32.424 56.5296 32.488 57.0736 32.52V33C56.2096 32.952 54.9776 32.928 53.3776 32.928C51.6656 32.928 50.4256 32.952 49.6576 33V32.52C50.1856 32.488 50.5696 32.424 50.8096 32.328C51.0656 32.232 51.2336 32.048 51.3136 31.776C51.4096 31.504 51.4576 31.064 51.4576 30.456V26.4L46.8256 17.832C46.3296 16.936 45.8656 16.488 45.4336 16.488V15.984C46.1376 16.064 47.0816 16.104 48.2656 16.104C49.7536 16.104 51.2576 16.064 52.7776 15.984V16.488C52.2176 16.488 51.7696 16.544 51.4336 16.656C51.1136 16.752 50.9536 16.936 50.9536 17.208C50.9536 17.352 51.0096 17.528 51.1216 17.736L54.7696 24.768L56.6416 21.024C57.2656 19.76 57.5776 18.768 57.5776 18.048C57.5776 17.504 57.4016 17.112 57.0496 16.872C56.7136 16.632 56.2256 16.496 55.5856 16.464V15.984C56.6736 16.032 57.6736 16.056 58.5856 16.056ZM74.5227 29.352C74.5227 30.824 74.5787 32.04 74.6907 33C73.6027 32.952 71.7707 32.928 69.1947 32.928C65.7067 32.928 63.0987 32.952 61.3707 33V32.52C61.8987 32.488 62.2827 32.424 62.5227 32.328C62.7787 32.232 62.9467 32.048 63.0267 31.776C63.1227 31.504 63.1707 31.064 63.1707 30.456V18.552C63.1707 17.944 63.1227 17.504 63.0267 17.232C62.9467 16.96 62.7787 16.776 62.5227 16.68C62.2827 16.584 61.8987 16.52 61.3707 16.488V16.008C63.0987 16.056 65.7067 16.08 69.1947 16.08C71.5467 16.08 73.2187 16.056 74.2107 16.008C74.0987 17.336 74.0427 18.52 74.0427 19.56C74.0427 20.264 74.0667 20.808 74.1147 21.192H73.5627C73.3227 19.48 72.8907 18.28 72.2667 17.592C71.6427 16.904 70.7627 16.56 69.6267 16.56H68.6427C68.1467 16.56 67.7867 16.6 67.5627 16.68C67.3387 16.76 67.1867 16.92 67.1067 17.16C67.0267 17.384 66.9867 17.752 66.9867 18.264V24.216H67.7547C68.6027 24.216 69.2427 23.904 69.6747 23.28C70.1227 22.656 70.4347 21.912 70.6107 21.048H71.1627C71.1147 21.72 71.0907 22.472 71.0907 23.304V24.456C71.0907 25.272 71.1387 26.408 71.2347 27.864H70.6827C70.3467 25.752 69.3707 24.696 67.7547 24.696H66.9867V30.744C66.9867 31.256 67.0267 31.632 67.1067 31.872C67.1867 32.096 67.3387 32.248 67.5627 32.328C67.7867 32.408 68.1467 32.448 68.6427 32.448H69.8187C70.9547 32.448 71.8667 32.064 72.5547 31.296C73.2587 30.512 73.7547 29.192 74.0427 27.336H74.5947C74.5467 27.864 74.5227 28.536 74.5227 29.352Z" fill="white"/>
<path d="M97.2216 16.488C96.6776 16.52 96.2856 16.584 96.0456 16.68C95.8056 16.776 95.6376 16.96 95.5416 17.232C95.4616 17.504 95.4216 17.944 95.4216 18.552V30.456C95.4216 31.064 95.4616 31.504 95.5416 31.776C95.6376 32.048 95.8056 32.232 96.0456 32.328C96.3016 32.424 96.6936 32.488 97.2216 32.52V33C96.3416 32.952 95.0856 32.928 93.4536 32.928C91.7416 32.928 90.4776 32.952 89.6616 33V32.52C90.2376 32.488 90.6536 32.424 90.9096 32.328C91.1816 32.232 91.3656 32.048 91.4616 31.776C91.5576 31.504 91.6056 31.064 91.6056 30.456V17.904L85.8216 33.024H85.4376L78.9576 17.568V29.064C78.9576 30.008 79.0056 30.704 79.1016 31.152C79.1976 31.584 79.4056 31.904 79.7256 32.112C80.0456 32.304 80.5656 32.44 81.2856 32.52V33C80.6616 32.952 79.7976 32.928 78.6936 32.928C77.8136 32.928 77.1176 32.952 76.6056 33V32.52C77.1336 32.44 77.5176 32.304 77.7576 32.112C78.0136 31.92 78.1816 31.616 78.2616 31.2C78.3576 30.784 78.4056 30.168 78.4056 29.352V18.552C78.4056 17.944 78.3576 17.504 78.2616 17.232C78.1816 16.96 78.0136 16.776 77.7576 16.68C77.5176 16.584 77.1336 16.52 76.6056 16.488V16.008C77.1176 16.056 77.8136 16.08 78.6936 16.08C80.1656 16.08 81.4296 16.056 82.4856 16.008L87.3336 27.696L91.7496 16.08H93.4536C95.0856 16.08 96.3416 16.056 97.2216 16.008V16.488ZM112.672 30.984C112.88 31.512 113.12 31.896 113.392 32.136C113.664 32.376 113.928 32.504 114.184 32.52V33C113.224 32.952 112.008 32.928 110.536 32.928C108.904 32.928 107.688 32.952 106.888 33V32.52C107.496 32.488 107.928 32.416 108.184 32.304C108.44 32.176 108.568 31.96 108.568 31.656C108.568 31.368 108.472 30.984 108.28 30.504L106.84 26.568H101.608L100.984 28.224C100.536 29.376 100.312 30.264 100.312 30.888C100.312 31.48 100.488 31.896 100.84 32.136C101.208 32.36 101.744 32.488 102.448 32.52V33C101.36 32.952 100.368 32.928 99.4718 32.928C98.7358 32.928 98.1278 32.952 97.6478 33V32.52C98.4318 32.376 99.1198 31.536 99.7118 30L105.184 15.96C105.36 15.976 105.64 15.984 106.024 15.984C106.408 15.984 106.68 15.976 106.84 15.96L112.672 30.984ZM106.672 26.088L104.296 19.608L101.8 26.088H106.672ZM128.68 30.984C128.888 31.512 129.128 31.896 129.4 32.136C129.672 32.376 129.936 32.504 130.192 32.52V33C129.232 32.952 128.016 32.928 126.544 32.928C124.912 32.928 123.696 32.952 122.896 33V32.52C123.504 32.488 123.936 32.416 124.192 32.304C124.448 32.176 124.576 31.96 124.576 31.656C124.576 31.368 124.48 30.984 124.288 30.504L122.848 26.568H117.616L116.992 28.224C116.544 29.376 116.32 30.264 116.32 30.888C116.32 31.48 116.496 31.896 116.848 32.136C117.216 32.36 117.752 32.488 118.456 32.52V33C117.368 32.952 116.376 32.928 115.48 32.928C114.744 32.928 114.136 32.952 113.656 33V32.52C114.44 32.376 115.128 31.536 115.72 30L121.192 15.96C121.368 15.976 121.648 15.984 122.032 15.984C122.416 15.984 122.688 15.976 122.848 15.96L128.68 30.984ZM122.68 26.088L120.304 19.608L117.808 26.088H122.68ZM133.263 29.64C133.887 29.64 134.383 29.808 134.751 30.144C135.119 30.464 135.303 30.912 135.303 31.488C135.303 32.064 135.119 32.52 134.751 32.856C134.383 33.176 133.887 33.336 133.263 33.336C132.639 33.336 132.143 33.176 131.775 32.856C131.407 32.52 131.223 32.064 131.223 31.488C131.223 30.912 131.407 30.464 131.775 30.144C132.143 29.808 132.639 29.64 133.263 29.64ZM139.732 29.64C140.356 29.64 140.852 29.808 141.22 30.144C141.588 30.464 141.772 30.912 141.772 31.488C141.772 32.064 141.588 32.52 141.22 32.856C140.852 33.176 140.356 33.336 139.732 33.336C139.108 33.336 138.612 33.176 138.244 32.856C137.876 32.52 137.692 32.064 137.692 31.488C137.692 30.912 137.876 30.464 138.244 30.144C138.612 29.808 139.108 29.64 139.732 29.64Z" fill="#6D8090"/>
<defs>
<linearGradient id="paint0_linear_15_72" x1="2.97" y1="15.7957" x2="22.8356" y2="8.83105" gradientUnits="userSpaceOnUse">
<stop stop-color="#4C6EEA"/>
<stop offset="1" stop-color="#6598F9"/>
</linearGradient>
</defs>
</svg>
