<svg width="27" height="29" viewBox="0 0 27 29" fill="none" xmlns="http://www.w3.org/2000/svg">
<path d="M26.8373 8.59914L23.9629 6.73232V0.391504C23.9629 0.190994 23.8117 0.0289262 23.6253 0.0289262H19.364C19.1779 0.0289262 19.0267 0.190994 19.0267 0.391504V3.52693L13.6757 0.0521577C13.6418 0.0303091 13.6044 0.0162042 13.566 0.00956664C13.48 -0.0120055 13.3899 0.00320562 13.3142 0.0521577L0.162736 8.59914C0.0617985 8.66441 0 8.7825 0 8.90917V11.8997C0 12.0297 0.0646309 12.1497 0.169431 12.2141C0.274488 12.2788 0.403492 12.2783 0.507777 12.2127L2.48842 10.969V25.5778H1.54599C1.35957 25.5778 1.20867 25.7398 1.20867 25.9404V28.6374C1.20867 28.8377 1.35957 29 1.54599 29H25.454C25.6404 29 25.7916 28.8377 25.7916 28.6374V25.9404C25.7916 25.7398 25.6404 25.5778 25.454 25.5778H24.5116V10.9699L26.4925 12.2127C26.545 12.2457 26.6037 12.2623 26.6627 12.2623C26.7206 12.2623 26.7786 12.2462 26.8306 12.2141C26.9356 12.1497 27 12.0297 27 11.8997V8.90917C27 8.7825 26.9382 8.66441 26.8373 8.59914ZM19.7016 0.753805H23.2877V6.29397L19.7016 3.96528V0.753805ZM25.1164 28.2748H1.88357V26.3027H25.1164V28.2748ZM16.5375 25.5778H10.4625V14.2557H16.5375V25.5778ZM23.8367 25.5778H17.2127V13.8932C17.2127 13.6926 17.0615 13.5306 16.8751 13.5306H10.1249C9.93874 13.5306 9.78759 13.6926 9.78759 13.8932V25.5778H3.16331V10.5451L13.495 4.05683L23.8367 10.5462V25.5778ZM26.3251 11.2683L13.6652 3.32393C13.6127 3.29102 13.5537 3.27442 13.495 3.27442C13.436 3.27442 13.3773 3.29102 13.3245 3.32393L0.674891 11.2677V9.11328L13.495 0.782291L26.3251 9.11328V11.2683Z" fill="#ED922B"/>
</svg>
