<svg width="119" height="60" viewBox="0 0 119 60" fill="none" xmlns="http://www.w3.org/2000/svg">
<path d="M24.5643 28.701C26.5389 28.9484 28.1976 30.1856 29.6193 32.5361C31.0411 34.8866 31.7519 38.1031 31.7519 42.1856C31.7519 47.134 30.7251 51.2165 28.5925 54.1856C26.4599 57.1546 23.4585 58.6392 19.4303 58.6392H0V0H19.3513C22.7476 0 25.5121 1.48454 27.5657 4.3299C29.6193 7.29897 30.6461 11.134 30.6461 15.9588C30.6461 19.6701 30.0143 22.5155 28.6715 24.7423C27.3288 26.9691 25.986 28.0825 24.4853 28.3299L24.5643 28.701ZM9.24123 24.2474H17.2977C18.6404 24.2474 19.7462 23.6289 20.6151 22.3918C21.4049 21.1546 21.8788 19.6701 21.8788 17.567C21.8788 15.7113 21.4839 14.3505 20.694 13.2371C19.9042 12.1237 18.8774 11.6289 17.6926 11.6289H9.24123V24.2474ZM17.7716 47.0103C19.1933 47.0103 20.3781 46.3917 21.1679 45.2783C21.9578 44.1649 22.3527 42.5567 22.3527 40.4536C22.3527 38.4742 21.9578 36.9897 21.089 35.8763C20.2991 34.7629 19.1933 34.1443 17.9296 34.1443H9.24123V47.0103H17.7716ZM63.7408 58.6392H54.8155V54.433C52.6039 58.1443 49.6815 60 46.2062 60C42.8888 60 40.2823 58.268 38.3077 54.9278C36.333 51.5876 35.3062 47.134 35.3062 41.6907V14.7216H44.1525V38.7216C44.1525 41.3196 44.6265 43.4227 45.4953 45.0309C46.3641 46.6392 47.5489 47.3814 48.9706 47.3814C50.7873 47.3814 52.209 46.3918 53.2358 44.4124C54.2626 42.433 54.7365 39.3402 54.7365 35.134V14.7216H63.6618L63.7408 58.6392ZM91.3065 58.6392H67.6111V56.0412L78.7479 25.8557H67.927V14.7216H91.1486V17.3196L80.0117 47.5051H91.2275V58.6392H91.3065ZM118.793 58.6392H95.1768V56.0412L106.235 25.8557H95.4137V14.7216H118.635V17.3196L107.498 47.5051H118.714L118.793 58.6392Z" fill="#E7EBFC"/>
</svg>
