<svg width="230" height="9" viewBox="0 0 230 9" fill="none" xmlns="http://www.w3.org/2000/svg">
<path opacity="0.2" d="M217.119 6.31421C216.29 6.31421 215.619 5.64264 215.619 4.81421C215.619 3.98578 216.29 3.31421 217.119 3.31421V6.31421ZM207.158 3.31421C207.986 3.31421 208.658 3.98578 208.658 4.81421C208.658 5.64264 207.986 6.31421 207.158 6.31421V3.31421ZM202.177 6.31421C201.349 6.31421 200.677 5.64264 200.677 4.81421C200.677 3.98578 201.349 3.31421 202.177 3.31421V6.31421ZM192.216 3.31421C193.044 3.31421 193.716 3.98578 193.716 4.81421C193.716 5.64264 193.044 6.31421 192.216 6.31421V3.31421ZM187.236 6.31421C186.407 6.31421 185.736 5.64264 185.736 4.81421C185.736 3.98578 186.407 3.31421 187.236 3.31421V6.31421ZM177.274 3.31421C178.103 3.31421 178.774 3.98578 178.774 4.81421C178.774 5.64264 178.103 6.31421 177.274 6.31421V3.31421ZM172.294 6.31421C171.465 6.31421 170.794 5.64264 170.794 4.81421C170.794 3.98578 171.465 3.31421 172.294 3.31421V6.31421ZM162.333 3.31421C163.161 3.31421 163.833 3.98578 163.833 4.81421C163.833 5.64264 163.161 6.31421 162.333 6.31421V3.31421ZM157.352 6.31421C156.524 6.31421 155.852 5.64264 155.852 4.81421C155.852 3.98578 156.524 3.31421 157.352 3.31421V6.31421ZM147.391 3.31421C148.22 3.31421 148.891 3.98578 148.891 4.81421C148.891 5.64264 148.22 6.31421 147.391 6.31421V3.31421ZM142.411 6.31421C141.582 6.31421 140.911 5.64264 140.911 4.81421C140.911 3.98578 141.582 3.31421 142.411 3.31421V6.31421ZM132.45 3.31421C133.278 3.31421 133.95 3.98578 133.95 4.81421C133.95 5.64264 133.278 6.31421 132.45 6.31421V3.31421ZM127.469 6.31421C126.641 6.31421 125.969 5.64264 125.969 4.81421C125.969 3.98578 126.641 3.31421 127.469 3.31421V6.31421ZM117.508 3.31421C118.336 3.31421 119.008 3.98578 119.008 4.81421C119.008 5.64264 118.336 6.31421 117.508 6.31421V3.31421ZM112.527 6.31421C111.699 6.31421 111.027 5.64264 111.027 4.81421C111.027 3.98578 111.699 3.31421 112.527 3.31421V6.31421ZM102.566 3.31421C103.395 3.31421 104.066 3.98578 104.066 4.81421C104.066 5.64264 103.395 6.31421 102.566 6.31421V3.31421ZM97.5858 6.31421C96.7574 6.31421 96.0858 5.64264 96.0858 4.81421C96.0858 3.98578 96.7574 3.31421 97.5858 3.31421V6.31421ZM87.6247 3.31421C88.4532 3.31421 89.1247 3.98578 89.1247 4.81421C89.1247 5.64264 88.4532 6.31421 87.6247 6.31421V3.31421ZM82.6442 6.31421C81.8158 6.31421 81.1442 5.64264 81.1442 4.81421C81.1442 3.98578 81.8158 3.31421 82.6442 3.31421V6.31421ZM72.6831 3.31421C73.5115 3.31421 74.1831 3.98578 74.1831 4.81421C74.1831 5.64264 73.5115 6.31421 72.6831 6.31421V3.31421ZM67.7026 6.31421C66.8741 6.31421 66.2026 5.64264 66.2026 4.81421C66.2026 3.98578 66.8741 3.31421 67.7026 3.31421V6.31421ZM57.7415 3.31421C58.5699 3.31421 59.2415 3.98578 59.2415 4.81421C59.2415 5.64264 58.5699 6.31421 57.7415 6.31421V3.31421ZM52.7609 6.31421C51.9325 6.31421 51.2609 5.64264 51.2609 4.81421C51.2609 3.98578 51.9325 3.31421 52.7609 3.31421V6.31421ZM42.7999 3.31421C43.6283 3.31421 44.2999 3.98578 44.2999 4.81421C44.2999 5.64264 43.6283 6.31421 42.7999 6.31421V3.31421ZM37.8193 6.31421C36.9909 6.31421 36.3193 5.64264 36.3193 4.81421C36.3193 3.98578 36.9909 3.31421 37.8193 3.31421V6.31421ZM27.8582 3.31421C28.6867 3.31421 29.3582 3.98578 29.3582 4.81421C29.3582 5.64264 28.6867 6.31421 27.8582 6.31421V3.31421ZM22.8777 6.31421C22.0493 6.31421 21.3777 5.64264 21.3777 4.81421C21.3777 3.98578 22.0493 3.31421 22.8777 3.31421V6.31421ZM12.9166 3.31421C13.7451 3.31421 14.4166 3.98578 14.4166 4.81421C14.4166 5.64264 13.7451 6.31421 12.9166 6.31421V3.31421ZM219.609 6.31421H217.119V3.31421H219.609V6.31421ZM207.158 6.31421H202.177V3.31421H207.158V6.31421ZM192.216 6.31421H187.236V3.31421H192.216V6.31421ZM177.274 6.31421H172.294V3.31421H177.274V6.31421ZM162.333 6.31421H157.352V3.31421H162.333V6.31421ZM147.391 6.31421H142.411V3.31421H147.391V6.31421ZM132.45 6.31421H127.469V3.31421H132.45V6.31421ZM117.508 6.31421H112.527V3.31421H117.508V6.31421ZM102.566 6.31421H97.5858V3.31421H102.566V6.31421ZM87.6247 6.31421H82.6442V3.31421H87.6247V6.31421ZM72.6831 6.31421H67.7026V3.31421H72.6831V6.31421ZM57.7415 6.31421H52.7609V3.31421H57.7415V6.31421ZM42.7999 6.31421H37.8193V3.31421H42.7999V6.31421ZM27.8582 6.31421H22.8777V3.31421H27.8582V6.31421ZM12.9166 6.31421H10.4263V3.31421H12.9166V6.31421Z" fill="url(#paint0_linear_15_225)"/>
<ellipse rx="6.00786" ry="4.04128" transform="matrix(-1 0 0 1 6.05696 4.81423)" fill="#1C6EEA"/>
<ellipse rx="6.00786" ry="4.04128" transform="matrix(-1 0 0 1 223.432 4.81423)" fill="#0D1118"/>
<defs>
<linearGradient id="paint0_linear_15_225" x1="214.147" y1="6.31365" x2="4.96491" y2="6.91042" gradientUnits="userSpaceOnUse">
<stop stop-color="#1C6EEA"/>
<stop offset="1" stop-color="#0D1118"/>
</linearGradient>
</defs>
</svg>
