<svg width="230" height="9" viewBox="0 0 230 9" fill="none" xmlns="http://www.w3.org/2000/svg">
<path opacity="0.2" d="M12.451 6.04907C13.2794 6.04907 13.951 5.3775 13.951 4.54907C13.951 3.72065 13.2794 3.04907 12.451 3.04907V6.04907ZM22.412 3.04907C21.5836 3.04907 20.912 3.72065 20.912 4.54907C20.912 5.3775 21.5836 6.04907 22.412 6.04907V3.04907ZM27.3926 6.04907C28.221 6.04907 28.8926 5.3775 28.8926 4.54907C28.8926 3.72065 28.221 3.04907 27.3926 3.04907V6.04907ZM37.3537 3.04907C36.5252 3.04907 35.8537 3.72065 35.8537 4.54907C35.8537 5.3775 36.5252 6.04907 37.3537 6.04907V3.04907ZM42.3342 6.04907C43.1626 6.04907 43.8342 5.3775 43.8342 4.54907C43.8342 3.72065 43.1626 3.04907 42.3342 3.04907V6.04907ZM52.2953 3.04907C51.4669 3.04907 50.7953 3.72065 50.7953 4.54907C50.7953 5.3775 51.4669 6.04907 52.2953 6.04907V3.04907ZM57.2758 6.04907C58.1043 6.04907 58.7758 5.3775 58.7758 4.54907C58.7758 3.72065 58.1043 3.04907 57.2758 3.04907V6.04907ZM67.2369 3.04907C66.4085 3.04907 65.7369 3.72065 65.7369 4.54907C65.7369 5.3775 66.4085 6.04907 67.2369 6.04907V3.04907ZM72.2174 6.04907C73.0459 6.04907 73.7174 5.3775 73.7174 4.54907C73.7174 3.72065 73.0459 3.04907 72.2174 3.04907V6.04907ZM82.1785 3.04907C81.3501 3.04907 80.6785 3.72065 80.6785 4.54907C80.6785 5.3775 81.3501 6.04907 82.1785 6.04907V3.04907ZM87.1591 6.04907C87.9875 6.04907 88.6591 5.3775 88.6591 4.54907C88.6591 3.72065 87.9875 3.04907 87.1591 3.04907V6.04907ZM97.1201 3.04907C96.2917 3.04907 95.6201 3.72065 95.6201 4.54907C95.6201 5.3775 96.2917 6.04907 97.1201 6.04907V3.04907ZM102.101 6.04907C102.929 6.04907 103.601 5.3775 103.601 4.54907C103.601 3.72065 102.929 3.04907 102.101 3.04907V6.04907ZM112.062 3.04907C111.233 3.04907 110.562 3.72065 110.562 4.54907C110.562 5.3775 111.233 6.04907 112.062 6.04907V3.04907ZM117.042 6.04907C117.871 6.04907 118.542 5.3775 118.542 4.54907C118.542 3.72065 117.871 3.04907 117.042 3.04907V6.04907ZM127.003 3.04907C126.175 3.04907 125.503 3.72065 125.503 4.54907C125.503 5.3775 126.175 6.04907 127.003 6.04907V3.04907ZM131.984 6.04907C132.812 6.04907 133.484 5.3775 133.484 4.54907C133.484 3.72065 132.812 3.04907 131.984 3.04907V6.04907ZM141.945 3.04907C141.117 3.04907 140.445 3.72065 140.445 4.54907C140.445 5.3775 141.117 6.04907 141.945 6.04907V3.04907ZM146.926 6.04907C147.754 6.04907 148.426 5.3775 148.426 4.54907C148.426 3.72065 147.754 3.04907 146.926 3.04907V6.04907ZM156.887 3.04907C156.058 3.04907 155.387 3.72065 155.387 4.54907C155.387 5.3775 156.058 6.04907 156.887 6.04907V3.04907ZM161.867 6.04907C162.696 6.04907 163.367 5.3775 163.367 4.54907C163.367 3.72065 162.696 3.04907 161.867 3.04907V6.04907ZM171.828 3.04907C171 3.04907 170.328 3.72065 170.328 4.54907C170.328 5.3775 171 6.04907 171.828 6.04907V3.04907ZM176.809 6.04907C177.637 6.04907 178.309 5.3775 178.309 4.54907C178.309 3.72065 177.637 3.04907 176.809 3.04907V6.04907ZM186.77 3.04907C185.941 3.04907 185.27 3.72065 185.27 4.54907C185.27 5.3775 185.941 6.04907 186.77 6.04907V3.04907ZM191.75 6.04907C192.579 6.04907 193.25 5.3775 193.25 4.54907C193.25 3.72065 192.579 3.04907 191.75 3.04907V6.04907ZM201.711 3.04907C200.883 3.04907 200.211 3.72065 200.211 4.54907C200.211 5.3775 200.883 6.04907 201.711 6.04907V3.04907ZM206.692 6.04907C207.52 6.04907 208.192 5.3775 208.192 4.54907C208.192 3.72065 207.52 3.04907 206.692 3.04907V6.04907ZM216.653 3.04907C215.825 3.04907 215.153 3.72065 215.153 4.54907C215.153 5.3775 215.825 6.04907 216.653 6.04907V3.04907ZM9.96069 6.04907H12.451V3.04907H9.96069V6.04907ZM22.412 6.04907H27.3926V3.04907H22.412V6.04907ZM37.3537 6.04907H42.3342V3.04907H37.3537V6.04907ZM52.2953 6.04907H57.2758V3.04907H52.2953V6.04907ZM67.2369 6.04907H72.2174V3.04907H67.2369V6.04907ZM82.1785 6.04907H87.1591V3.04907H82.1785V6.04907ZM97.1201 6.04907H102.101V3.04907H97.1201V6.04907ZM112.062 6.04907H117.042V3.04907H112.062V6.04907ZM127.003 6.04907H131.984V3.04907H127.003V6.04907ZM141.945 6.04907H146.926V3.04907H141.945V6.04907ZM156.887 6.04907H161.867V3.04907H156.887V6.04907ZM171.828 6.04907H176.809V3.04907H171.828V6.04907ZM186.77 6.04907H191.75V3.04907H186.77V6.04907ZM201.711 6.04907H206.692V3.04907H201.711V6.04907ZM216.653 6.04907H219.143V3.04907H216.653V6.04907Z" fill="url(#paint0_linear_15_221)"/>
<ellipse cx="223.513" cy="4.5491" rx="6.00786" ry="4.04128" fill="#4DDFFD"/>
<ellipse cx="6.1375" cy="4.5491" rx="6.00786" ry="4.04128" fill="#ED922B"/>
<defs>
<linearGradient id="paint0_linear_15_221" x1="15.4224" y1="6.04851" x2="224.605" y2="6.64528" gradientUnits="userSpaceOnUse">
<stop stop-color="#ED922B"/>
<stop offset="1" stop-color="#1C6EEA"/>
</linearGradient>
</defs>
</svg>
