<svg width="173" height="60" viewBox="0 0 173 60" fill="none" xmlns="http://www.w3.org/2000/svg">
<path opacity="0.8" d="M38.7967 40.0778V53.0129C35.5617 57.1479 27.8315 59.6077 22.0763 59.6077C16.3285 59.6077 0.418701 54.4336 0.418701 30.1219C0.418701 5.81021 15.5621 0.572539 21.671 0.572539C27.7873 0.572539 34.3015 2.18413 38.0745 5.81021V17.1868C38.0745 18.6075 36.726 18.4803 36.726 17.1868C36.6375 15.2465 33.0414 3.61548 24.0512 3.86994C14.3462 4.15621 7.78774 15.1299 7.78774 29.6024C7.78774 44.0749 14.162 56.5011 23.7859 56.1088C26.9104 55.9816 30.1675 54.5609 31.7445 52.6736L31.7813 40.0778C31.7813 36.4623 30.2559 35.1688 28.7306 35.1688C27.7357 35.1688 27.7357 33.1013 28.7306 33.1013H41.8474C42.8349 33.1013 42.8349 35.296 41.8474 35.1688C40.3294 35.1688 38.7967 36.4623 38.7967 40.0778ZM127.233 17.1974C127.233 18.6181 126.245 18.4909 126.245 17.1974C126.149 15.2571 122.561 3.23379 113.57 3.49885C103.865 3.77452 97.2995 15.1405 97.2995 29.613C97.2995 44.0855 103.593 56.8934 113.209 56.5117C122.826 56.1195 127.409 42.4209 127.77 40.6079C128.132 38.7948 128.758 39.0599 128.758 40.4806V51.0832C124.808 55.2182 117.343 59.6183 111.595 59.6183C105.848 59.6183 89.9378 54.4442 89.9378 30.1325C89.9378 5.81022 105.037 0 111.146 0C117.262 0 123.46 2.19473 127.24 5.81021V17.1974H127.233ZM86.5186 1.42075C87.9555 1.42075 87.9555 3.36102 86.5186 3.36102C84.9932 3.36102 83.4678 4.65453 83.4678 8.27001L83.2909 36.5259C83.2909 50.0548 75.664 60 66.2537 60C56.8434 60 49.4965 50.0548 49.4965 36.5259V8.27001C49.4965 4.64393 47.9637 3.36102 46.4384 3.36102C45.0014 3.36102 45.0014 1.42075 46.4384 1.42075H59.7395C61.1764 1.42075 61.1764 3.36102 59.7395 3.36102C58.2067 3.36102 56.6813 4.65453 56.6813 8.27001L56.6666 39.8233C56.6666 49.3656 62.0902 57.1055 68.7223 57.1055C75.3545 57.1055 80.7339 47.4253 80.7339 37.8936L80.4096 8.27001C80.4096 4.64393 78.8842 3.36102 77.3515 3.36102C75.9219 3.36102 75.9219 1.42075 77.3515 1.42075H86.5186ZM171.181 17.1974C171.181 18.6181 170.194 18.4909 170.194 17.1974C170.106 15.2571 166.51 3.23379 157.519 3.49885C147.814 3.77452 141.248 15.1405 141.248 29.613C141.248 44.0855 147.542 56.8934 157.158 56.5117C166.775 56.1301 171.358 42.4209 171.719 40.6079C172.08 38.7948 172.714 39.0599 172.714 40.4806V51.0832C168.757 55.2182 161.3 59.6183 155.544 59.6183C149.797 59.6183 133.887 54.4442 133.887 30.1325C133.887 5.81022 148.986 0 155.102 0C161.211 0 167.416 2.19473 171.189 5.81021V17.1974H171.181Z" fill="#E7EBFC"/>
</svg>
