<svg width="173" height="60" viewBox="0 0 173 60" fill="none" xmlns="http://www.w3.org/2000/svg">
<path d="M58.3516 0.0417408V23.825H40.6466V0.0417408L34.1981 0.0310059V59.9988H40.6466V34.2364H58.3516V59.9988H64.8105V0.0417408H58.3516Z" fill="#E7EBFC"/>
<path d="M144.138 0.0444336V59.9874H172.429L168.845 49.4345H150.605V34.2392H168.267V24.075H150.605V10.3501H168.815L172.325 0.0444336H144.138Z" fill="#E7EBFC"/>
<path d="M10.2287 0.0283203C3.5209 0.0283203 0.132996 7.66 0.132996 18.7645V41.1491C0.132996 53.9999 4.49895 59.9999 10.1952 59.9999L30.4267 59.9963L26.6761 49.0351H11.4451C8.20934 49.0351 6.79965 46.8464 6.79965 40.0691V19.7604C6.79965 13.2087 7.98637 10.6529 11.5312 10.6529H26.835L30.4363 0.0283203H10.2287Z" fill="#E7EBFC"/>
<path d="M115.837 0.0143205C111.963 0.0143205 107.992 4.37194 107.992 15.5803V18.4603C107.992 30.1451 111.813 34.603 115.635 34.6335H129.052C130.445 34.6335 131.577 35.0669 131.577 39.4747L131.575 44.5666C131.54 48.5266 130.484 49.4329 129.004 49.4329H111.353L107.738 59.9858H129.419C134.648 59.9858 138.197 55.1177 138.197 43.8735V39.7416C138.197 28.8699 134.899 23.7332 129.786 23.7332H116.975C115.555 23.7332 114.565 23.0078 114.565 19.0711V14.9248C114.565 11.572 115.244 10.3487 116.898 10.3487L133.708 10.3361L137.221 0L115.837 0.0143205Z" fill="#E7EBFC"/>
<path d="M83.546 0.0444336L68.3532 59.9981H75.5338L78.4929 47.6165H95.0026L97.9521 59.9981H105.164L89.9361 0.0444336H83.546ZM86.732 12.4922L92.5698 37.4111H80.9314L86.732 12.4922Z" fill="#E7EBFC"/>
</svg>
