<svg width="173" height="60" viewBox="0 0 173 60" fill="none" xmlns="http://www.w3.org/2000/svg">
<path d="M28.6738 0H35.3001V35.0713C35.3001 53.5234 28.2345 60 17.9839 60C7.76993 60 0.704346 53.5234 0.704346 35.0713V1.4053C0.704346 0.427699 0.997219 0 1.58297 0H8.20924V34.5214C8.20924 45.5804 11.138 50.1629 17.9839 50.1629C24.8664 50.1629 27.7952 45.5804 27.7952 34.5214V1.4053C27.7952 0.427699 28.088 0 28.6738 0ZM103.686 9.59267V24.3788H120.453C120.746 24.3788 120.856 24.6232 120.746 25.112L118.916 32.6884C118.732 33.3605 118.476 33.666 117.927 33.666H108.079C104.858 33.666 103.686 35.3157 103.686 38.9206V49.3686H126.384C126.677 49.3686 126.787 49.613 126.677 50.1018L124.773 57.9837C124.59 58.6558 124.334 58.9613 123.785 58.9613H98.9269C97.0232 58.9613 96.291 57.8615 96.291 55.4786V4.09369C96.291 1.222 97.2429 0 99.7323 0H126.384C126.677 0 126.787 0.244399 126.677 0.672098L124.773 8.61507C124.59 9.28717 124.334 9.59267 123.785 9.59267H103.686ZM82.6358 42.6477C82.6358 54.4399 77.6569 58.9613 70.6646 58.9613H52.1403C50.2 58.9613 49.5044 57.8615 49.5044 55.4786V4.09369C49.5044 1.222 50.4197 0 52.9457 0H67.9921C74.5818 0 80.9518 1.89409 80.9518 14.9695C80.9518 20.5906 79.7437 25.3564 76.8515 27.8615C80.8419 29.6334 82.6358 35.6212 82.6358 42.6477ZM56.7897 24.5621H68.5412C72.4218 24.5621 73.5201 22.057 73.5201 16.9246C73.5201 11.7923 72.4218 9.34827 68.5412 9.34827H56.7897V24.5621ZM75.2041 41.5479C75.2041 36.11 74.0692 33.4216 69.8958 33.4216H61.2194C57.9978 33.4216 56.7897 35.0713 56.7897 38.6762V49.613H69.8958C74.0692 49.613 75.2041 46.9246 75.2041 41.5479ZM172.585 58.9613H165.849C165.299 58.9613 165.08 58.5947 164.86 57.9837L157.721 36.4766H151.168C147.947 36.4766 146.739 38.1263 146.739 41.7312V58.9613H140.295C139.71 58.9613 139.417 58.4725 139.417 57.556V30.8248V4.09369C139.417 1.222 140.369 0 142.858 0H157.978C166.8 0 172.109 3.84929 172.109 18.1466C172.109 29.2057 168.924 33.5438 164.97 35.2546L172.914 57.9226C173.061 58.2892 173.061 58.9613 172.585 58.9613ZM164.677 18.391C164.677 12.4033 163.689 9.47047 159.076 9.47047H146.739V27.3116H159.076C163.689 27.3116 164.677 24.4399 164.677 18.391Z" fill="#E7EBFC"/>
</svg>
